<mxfile host="app.diagrams.net" agent="Mozilla/5.0 (Windows NT 10.0; Win64; x64) AppleWebKit/537.36 (KHTML, like Gecko) Chrome/131.0.0.0 Safari/537.36 Edg/131.0.0.0" version="25.0.3">
  <diagram id="C5RBs43oDa-KdzZeNtuy" name="Page-1">
    <mxGraphModel dx="1263" dy="1285" grid="0" gridSize="10" guides="1" tooltips="1" connect="1" arrows="1" fold="1" page="0" pageScale="1" pageWidth="827" pageHeight="1169" math="0" shadow="0">
      <root>
        <mxCell id="WIyWlLk6GJQsqaUBKTNV-0" />
        <mxCell id="WIyWlLk6GJQsqaUBKTNV-1" parent="WIyWlLk6GJQsqaUBKTNV-0" />
        <mxCell id="XmNt72EtIXzPdljNJI39-29" value="" style="edgeStyle=orthogonalEdgeStyle;rounded=0;orthogonalLoop=1;jettySize=auto;html=1;" edge="1" parent="WIyWlLk6GJQsqaUBKTNV-1" source="XmNt72EtIXzPdljNJI39-30" target="XmNt72EtIXzPdljNJI39-38">
          <mxGeometry relative="1" as="geometry" />
        </mxCell>
        <mxCell id="XmNt72EtIXzPdljNJI39-30" value="Авторизация под любой ролью" style="rounded=0;whiteSpace=wrap;html=1;fontSize=12;glass=0;strokeWidth=1;shadow=0;" vertex="1" parent="WIyWlLk6GJQsqaUBKTNV-1">
          <mxGeometry x="158.5" y="95" width="143" height="44" as="geometry" />
        </mxCell>
        <mxCell id="XmNt72EtIXzPdljNJI39-31" value="" style="edgeStyle=orthogonalEdgeStyle;rounded=0;orthogonalLoop=1;jettySize=auto;html=1;" edge="1" parent="WIyWlLk6GJQsqaUBKTNV-1" source="XmNt72EtIXzPdljNJI39-33" target="XmNt72EtIXzPdljNJI39-46">
          <mxGeometry relative="1" as="geometry" />
        </mxCell>
        <mxCell id="XmNt72EtIXzPdljNJI39-32" style="edgeStyle=orthogonalEdgeStyle;rounded=0;orthogonalLoop=1;jettySize=auto;html=1;entryX=0.5;entryY=1;entryDx=0;entryDy=0;" edge="1" parent="WIyWlLk6GJQsqaUBKTNV-1" source="XmNt72EtIXzPdljNJI39-33" target="XmNt72EtIXzPdljNJI39-50">
          <mxGeometry relative="1" as="geometry">
            <Array as="points">
              <mxPoint x="465" y="510" />
            </Array>
          </mxGeometry>
        </mxCell>
        <mxCell id="XmNt72EtIXzPdljNJI39-33" value="Оценка валидна" style="rhombus;whiteSpace=wrap;html=1;shadow=0;fontFamily=Helvetica;fontSize=12;align=center;strokeWidth=1;spacing=6;spacingTop=-4;" vertex="1" parent="WIyWlLk6GJQsqaUBKTNV-1">
          <mxGeometry x="169.75" y="472" width="120.5" height="76" as="geometry" />
        </mxCell>
        <mxCell id="XmNt72EtIXzPdljNJI39-37" value="" style="edgeStyle=orthogonalEdgeStyle;rounded=0;orthogonalLoop=1;jettySize=auto;html=1;" edge="1" parent="WIyWlLk6GJQsqaUBKTNV-1" source="XmNt72EtIXzPdljNJI39-38" target="XmNt72EtIXzPdljNJI39-40">
          <mxGeometry relative="1" as="geometry" />
        </mxCell>
        <mxCell id="XmNt72EtIXzPdljNJI39-38" value="Переход на страницу чтения книги" style="rounded=0;whiteSpace=wrap;html=1;" vertex="1" parent="WIyWlLk6GJQsqaUBKTNV-1">
          <mxGeometry x="165.5" y="191" width="129" height="40" as="geometry" />
        </mxCell>
        <mxCell id="XmNt72EtIXzPdljNJI39-39" value="" style="edgeStyle=orthogonalEdgeStyle;rounded=0;orthogonalLoop=1;jettySize=auto;html=1;" edge="1" parent="WIyWlLk6GJQsqaUBKTNV-1" source="XmNt72EtIXzPdljNJI39-40" target="XmNt72EtIXzPdljNJI39-42">
          <mxGeometry relative="1" as="geometry" />
        </mxCell>
        <mxCell id="XmNt72EtIXzPdljNJI39-40" value="Ввод отзыва в текстовое поле" style="rounded=0;whiteSpace=wrap;html=1;" vertex="1" parent="WIyWlLk6GJQsqaUBKTNV-1">
          <mxGeometry x="165.5" y="289" width="129" height="40" as="geometry" />
        </mxCell>
        <mxCell id="XmNt72EtIXzPdljNJI39-41" value="" style="edgeStyle=orthogonalEdgeStyle;rounded=0;orthogonalLoop=1;jettySize=auto;html=1;" edge="1" parent="WIyWlLk6GJQsqaUBKTNV-1">
          <mxGeometry relative="1" as="geometry">
            <mxPoint x="230" y="422" as="sourcePoint" />
            <mxPoint x="230.0999999999999" y="472" as="targetPoint" />
          </mxGeometry>
        </mxCell>
        <mxCell id="XmNt72EtIXzPdljNJI39-42" value="Поставить книге оценку" style="rounded=0;whiteSpace=wrap;html=1;" vertex="1" parent="WIyWlLk6GJQsqaUBKTNV-1">
          <mxGeometry x="165.5" y="382" width="129" height="40" as="geometry" />
        </mxCell>
        <mxCell id="XmNt72EtIXzPdljNJI39-45" value="" style="edgeStyle=orthogonalEdgeStyle;rounded=0;orthogonalLoop=1;jettySize=auto;html=1;entryX=0.5;entryY=0;entryDx=0;entryDy=0;" edge="1" parent="WIyWlLk6GJQsqaUBKTNV-1" source="XmNt72EtIXzPdljNJI39-46" target="XmNt72EtIXzPdljNJI39-57">
          <mxGeometry relative="1" as="geometry">
            <mxPoint x="230" y="728" as="targetPoint" />
          </mxGeometry>
        </mxCell>
        <mxCell id="XmNt72EtIXzPdljNJI39-46" value="Отзыв с оценкой сохраняется" style="rounded=0;whiteSpace=wrap;html=1;" vertex="1" parent="WIyWlLk6GJQsqaUBKTNV-1">
          <mxGeometry x="165.5" y="594" width="129" height="40" as="geometry" />
        </mxCell>
        <mxCell id="XmNt72EtIXzPdljNJI39-47" value="да" style="text;html=1;align=center;verticalAlign=middle;resizable=0;points=[];autosize=1;strokeColor=none;fillColor=none;" vertex="1" parent="WIyWlLk6GJQsqaUBKTNV-1">
          <mxGeometry x="229" y="548" width="32" height="26" as="geometry" />
        </mxCell>
        <mxCell id="XmNt72EtIXzPdljNJI39-48" value="нет" style="text;html=1;align=center;verticalAlign=middle;resizable=0;points=[];autosize=1;strokeColor=none;fillColor=none;" vertex="1" parent="WIyWlLk6GJQsqaUBKTNV-1">
          <mxGeometry x="301.5" y="483" width="36" height="26" as="geometry" />
        </mxCell>
        <mxCell id="XmNt72EtIXzPdljNJI39-58" style="edgeStyle=orthogonalEdgeStyle;rounded=0;orthogonalLoop=1;jettySize=auto;html=1;entryX=1;entryY=0.5;entryDx=0;entryDy=0;" edge="1" parent="WIyWlLk6GJQsqaUBKTNV-1" source="XmNt72EtIXzPdljNJI39-50" target="XmNt72EtIXzPdljNJI39-42">
          <mxGeometry relative="1" as="geometry">
            <Array as="points">
              <mxPoint x="465" y="402" />
            </Array>
          </mxGeometry>
        </mxCell>
        <mxCell id="XmNt72EtIXzPdljNJI39-50" value="Получение сообщения о не валидной оценке" style="rounded=0;whiteSpace=wrap;html=1;" vertex="1" parent="WIyWlLk6GJQsqaUBKTNV-1">
          <mxGeometry x="390" y="436" width="150" height="47" as="geometry" />
        </mxCell>
        <mxCell id="XmNt72EtIXzPdljNJI39-55" value="" style="edgeStyle=orthogonalEdgeStyle;rounded=0;orthogonalLoop=1;jettySize=auto;html=1;" edge="1" parent="WIyWlLk6GJQsqaUBKTNV-1" source="XmNt72EtIXzPdljNJI39-56" target="XmNt72EtIXzPdljNJI39-30">
          <mxGeometry relative="1" as="geometry" />
        </mxCell>
        <mxCell id="XmNt72EtIXzPdljNJI39-56" value="Начало" style="ellipse;whiteSpace=wrap;html=1;" vertex="1" parent="WIyWlLk6GJQsqaUBKTNV-1">
          <mxGeometry x="161" y="-19" width="138" height="66" as="geometry" />
        </mxCell>
        <mxCell id="XmNt72EtIXzPdljNJI39-57" value="Конец" style="ellipse;whiteSpace=wrap;html=1;" vertex="1" parent="WIyWlLk6GJQsqaUBKTNV-1">
          <mxGeometry x="161" y="687" width="138" height="66" as="geometry" />
        </mxCell>
      </root>
    </mxGraphModel>
  </diagram>
</mxfile>
